<?xml version="1.0" encoding="UTF-8"?>
<svg id="Calque_1" data-name="Calque 1" xmlns="http://www.w3.org/2000/svg" viewBox="0 0 896 512">
  <defs>
    <style>
      .cls-1 {
        fill: #00983a;
      }

      .cls-1, .cls-2, .cls-3, .cls-4, .cls-5, .cls-6, .cls-7, .cls-8, .cls-9 {
        stroke-width: 0px;
      }

      .cls-2 {
        fill: #a3195b;
      }

      .cls-3 {
        fill: #ffde00;
      }

      .cls-4 {
        fill: #1d71b8;
      }

      .cls-5 {
        fill: #010101;
      }

      .cls-10, .cls-11, .cls-12, .cls-13 {
        fill: none;
      }

      .cls-10, .cls-13 {
        stroke: #fff;
        stroke-miterlimit: 10;
        stroke-width: 5px;
      }

      .cls-11, .cls-12 {
        stroke: #1e1e1c;
        stroke-miterlimit: 133.33;
        stroke-width: 6px;
      }

      .cls-12 {
        stroke-linecap: round;
      }

      .cls-6 {
        fill: #f39200;
      }

      .cls-13 {
        stroke-dasharray: 0 0 19.78 19.78;
      }

      .cls-7 {
        fill: #1e1e1c;
        fill-rule: evenodd;
      }

      .cls-8 {
        fill: #e5c90a;
      }

      .cls-9 {
        fill: #1d1d1b;
      }
    </style>
  </defs>
  <path class="cls-3" d="m96,384h800v78c0,27.6-22.4,50-50,50H96v-128h0Z"/>
  <path class="cls-8" d="m50,0h78v512H50C22.4,512,0,489.6,0,462V50C0,22.4,22.4,0,50,0Z"/>
  <path class="cls-8" d="m64,464h832v16c0,17.66-14.34,32-32,32H64v-48h0Z"/>
  <rect class="cls-9" x="128" y="0" width="768" height="384"/>
  <rect class="cls-3" x="64" y="0" width="80" height="464"/>
  <rect class="cls-8" x="48" y="432" width="48" height="32"/>
  <circle class="cls-3" cx="104" cy="424" r="40"/>
  <g>
    <path class="cls-9" d="m51.2,89.02h-3.2l-.63,2.23h-2.17l3.49-10.66h1.87l3.43,10.66h-2.17l-.62-2.23Zm-2.7-1.75h2.21l-1.09-3.93-1.12,3.93Z"/>
    <path class="cls-9" d="m58.4,88.9l.1.57.1-.55,1.74-5.6h2.12l-3.01,7.92h-1.91l-3.02-7.92h2.12l1.75,5.57Z"/>
    <path class="cls-9" d="m68.98,91.25c-.05-.1-.09-.21-.12-.34s-.06-.26-.09-.4c-.11.12-.24.24-.39.34s-.31.2-.49.28c-.18.08-.38.14-.59.19-.21.05-.45.07-.7.07-.41,0-.78-.06-1.12-.18-.34-.12-.63-.28-.88-.49s-.43-.46-.57-.75-.21-.61-.21-.95c0-.83.31-1.48.93-1.94.62-.46,1.55-.69,2.79-.69h1.14v-.47c0-.38-.12-.68-.37-.9-.25-.22-.61-.33-1.08-.33-.42,0-.72.09-.91.27s-.29.42-.29.71h-2.04c0-.34.07-.66.22-.96s.37-.57.65-.8c.29-.23.63-.41,1.05-.55.41-.13.89-.2,1.42-.2.48,0,.92.06,1.34.18s.77.29,1.07.52.54.52.71.87c.17.35.26.75.26,1.21v3.4c0,.42.03.78.08,1.05s.13.52.23.72v.12h-2.07Zm-1.94-1.43c.21,0,.4-.02.57-.07s.33-.11.48-.19.26-.17.37-.27.18-.2.24-.3v-1.36h-1.04c-.32,0-.59.03-.81.09-.22.06-.41.15-.55.26-.14.11-.25.24-.31.4-.07.15-.1.32-.1.5,0,.27.1.5.29.68.19.18.48.27.88.27Z"/>
    <path class="cls-9" d="m74.88,83.33l.12,1.1c.28-.4.63-.7,1.03-.92s.85-.33,1.35-.33c.4,0,.77.06,1.1.18s.62.3.86.56c.24.26.43.59.56.99.13.4.2.89.2,1.47v4.88h-2.04v-4.85c0-.31-.04-.57-.11-.77-.07-.2-.17-.36-.3-.48s-.29-.2-.48-.25c-.19-.05-.4-.07-.63-.07-.35,0-.64.07-.89.21-.24.14-.44.33-.59.57v5.63h-2.04v-7.92h1.85Z"/>
    <path class="cls-9" d="m85.54,89.77c.2,0,.39-.03.57-.09s.34-.14.48-.25.24-.24.32-.39c.08-.15.11-.32.1-.51h1.92c0,.41-.07.79-.25,1.14s-.42.65-.73.91-.67.45-1.07.6c-.41.14-.84.22-1.29.22-.62,0-1.15-.1-1.62-.31-.46-.21-.85-.49-1.16-.85s-.54-.78-.7-1.27-.24-1.01-.24-1.56v-.22c0-.56.08-1.08.23-1.56.16-.49.39-.91.7-1.27s.7-.65,1.16-.86c.46-.21,1-.31,1.61-.31.49,0,.94.07,1.35.22s.77.35,1.07.62c.3.27.53.59.7.97s.24.8.23,1.27h-1.92c0-.2-.02-.38-.09-.56s-.17-.33-.3-.45-.29-.23-.48-.3-.39-.11-.61-.11c-.32,0-.59.07-.8.2s-.38.31-.5.53c-.12.22-.21.47-.26.75-.05.28-.08.58-.08.88v.22c0,.31.02.6.07.89.05.29.14.54.26.75.12.22.29.39.5.52.21.13.48.2.81.2Z"/>
    <path class="cls-9" d="m94.88,91.4c-.61,0-1.16-.1-1.66-.3s-.93-.47-1.28-.82c-.36-.34-.63-.75-.82-1.22-.19-.47-.29-.97-.29-1.5v-.29c0-.61.1-1.16.29-1.66s.46-.93.8-1.29.75-.64,1.22-.84.98-.3,1.53-.3,1.08.09,1.53.28c.45.19.83.45,1.14.79.31.34.55.75.71,1.23.16.48.24,1.01.24,1.59v.86h-5.38c.04.27.12.51.24.74.12.22.27.41.46.58s.4.29.64.37.5.13.78.13c.2,0,.4-.02.6-.06.2-.04.39-.1.57-.17.18-.08.35-.17.51-.28s.29-.24.41-.4l1.02,1.1c-.13.18-.29.36-.49.53-.2.17-.44.33-.72.46-.28.13-.58.24-.92.33s-.7.12-1.09.12Zm-.24-6.57c-.23,0-.44.04-.63.12-.19.08-.36.2-.5.35-.14.15-.27.33-.36.54s-.17.44-.22.7h3.34v-.16c0-.21-.05-.42-.12-.61s-.18-.36-.31-.49c-.14-.14-.3-.25-.5-.33-.2-.08-.43-.12-.69-.12Zm.28-4.58h2.24l-2.03,2.04h-1.58l1.37-2.04Z"/>
    <path class="cls-9" d="m14.9,188.59h6.17v1.66h-2.08v7.35h2.08v1.66h-6.17v-1.66h2.03v-7.35h-2.03v-1.66Z"/>
    <path class="cls-9" d="m25.37,191.33l.12,1.1c.28-.4.63-.7,1.03-.92s.85-.33,1.35-.33c.4,0,.77.06,1.1.18s.62.3.86.56c.24.26.43.59.56.99.13.4.2.89.2,1.47v4.88h-2.04v-4.85c0-.31-.04-.57-.11-.77-.07-.2-.17-.36-.3-.48s-.29-.2-.48-.25c-.19-.05-.4-.07-.63-.07-.35,0-.64.07-.89.21-.24.14-.44.33-.59.57v5.63h-2.04v-7.92h1.85Z"/>
    <path class="cls-9" d="m36.26,189.38v1.94h2.96v1.5h-2.96v3.41c0,.29.03.53.1.72.07.19.16.35.28.46.12.12.27.2.44.25s.37.07.58.07c.16,0,.32,0,.48-.02.16-.01.32-.03.47-.05.15-.02.29-.05.42-.07s.24-.05.33-.07l.2,1.4c-.14.08-.31.16-.5.22-.19.06-.39.11-.61.15s-.44.07-.67.09c-.23.02-.46.03-.68.03-.43,0-.83-.06-1.18-.17-.35-.11-.66-.29-.91-.53-.25-.24-.45-.55-.58-.92-.14-.37-.21-.82-.21-1.34v-3.6h-1.81v-1.5h1.81v-1.94h2.04Z"/>
    <path class="cls-9" d="m45.37,199.4c-.61,0-1.16-.1-1.66-.3s-.93-.47-1.28-.82c-.36-.34-.63-.75-.82-1.22-.19-.47-.29-.97-.29-1.5v-.29c0-.61.1-1.16.29-1.66s.46-.93.8-1.29.75-.64,1.22-.84.98-.3,1.53-.3,1.08.09,1.53.28c.45.19.83.45,1.14.79.31.34.55.75.71,1.23.16.48.24,1.01.24,1.59v.86h-5.38c.04.27.12.51.24.74.12.22.27.41.46.58s.4.29.64.37.5.13.78.13c.2,0,.4-.02.6-.06.2-.04.39-.1.57-.17.18-.08.35-.17.51-.28s.29-.24.41-.4l1.02,1.1c-.13.18-.29.36-.49.53-.2.17-.44.33-.72.46-.28.13-.58.24-.92.33s-.7.12-1.09.12Zm-.24-6.57c-.23,0-.44.04-.63.12-.19.08-.36.2-.5.35-.14.15-.27.33-.36.54s-.17.44-.22.7h3.34v-.16c0-.21-.05-.42-.12-.61s-.18-.36-.31-.49c-.14-.14-.3-.25-.5-.33-.2-.08-.43-.12-.69-.12Z"/>
    <path class="cls-9" d="m56.22,191.18c.31,0,.59.02.85.06.26.04.47.09.63.14l-.3,2.03c-.27-.06-.54-.11-.82-.14s-.55-.05-.8-.05c-.57,0-1.03.11-1.37.33-.34.22-.6.53-.77.94v4.76h-2.04v-7.92h1.9l.1,1.3c.32-.45.71-.8,1.16-1.06.45-.26.94-.38,1.47-.38Z"/>
    <path class="cls-9" d="m60.8,191.33l.06.96c.15-.34.36-.61.63-.81.27-.2.59-.3.97-.3.64,0,1.06.28,1.25.84.16-.26.35-.47.6-.62.24-.15.53-.22.88-.22.24,0,.46.04.67.13s.39.23.54.42c.15.19.27.44.36.75.08.31.13.68.13,1.12v5.65h-1.85v-5.66c0-.15-.02-.28-.05-.37-.03-.1-.07-.17-.13-.23s-.12-.1-.19-.12c-.07-.02-.14-.03-.22-.03-.14,0-.26.03-.36.1-.1.07-.17.16-.23.27v6.05h-1.79v-5.67c0-.15-.01-.28-.04-.37s-.07-.17-.12-.23c-.05-.05-.11-.09-.18-.11-.07-.02-.14-.03-.22-.03-.16,0-.28.04-.38.13-.1.09-.17.21-.22.35v5.93h-1.85v-7.92h1.75Z"/>
    <path class="cls-9" d="m72.38,199.4c-.61,0-1.16-.1-1.66-.3s-.93-.47-1.28-.82c-.36-.34-.63-.75-.82-1.22-.19-.47-.29-.97-.29-1.5v-.29c0-.61.1-1.16.29-1.66s.46-.93.8-1.29.75-.64,1.22-.84.98-.3,1.53-.3,1.08.09,1.53.28c.45.19.83.45,1.14.79.31.34.55.75.71,1.23.16.48.24,1.01.24,1.59v.86h-5.38c.04.27.12.51.24.74.12.22.27.41.46.58s.4.29.64.37.5.13.78.13c.2,0,.4-.02.6-.06.2-.04.39-.1.57-.17.18-.08.35-.17.51-.28s.29-.24.41-.4l1.02,1.1c-.13.18-.29.36-.49.53-.2.17-.44.33-.72.46-.28.13-.58.24-.92.33s-.7.12-1.09.12Zm-.24-6.57c-.23,0-.44.04-.63.12-.19.08-.36.2-.5.35-.14.15-.27.33-.36.54s-.17.44-.22.7h3.34v-.16c0-.21-.05-.42-.12-.61s-.18-.36-.31-.49c-.14-.14-.3-.25-.5-.33-.2-.08-.43-.12-.69-.12Zm.28-4.58h2.24l-2.03,2.04h-1.58l1.37-2.04Z"/>
    <path class="cls-9" d="m77.32,195.23c0-.6.07-1.15.21-1.65.14-.5.34-.93.61-1.28s.59-.63.98-.83.82-.29,1.31-.29c.42,0,.78.07,1.1.22.31.15.59.36.84.63v-4.04h2.04v11.25h-1.84l-.1-.83c-.25.31-.54.55-.88.72s-.73.26-1.17.26c-.48,0-.92-.1-1.3-.3-.38-.2-.71-.48-.97-.84-.27-.36-.47-.78-.61-1.27-.14-.49-.21-1.02-.21-1.6v-.15Zm2.04.15c0,.33.03.64.08.93.06.29.15.53.27.75.13.21.29.38.49.5s.44.18.73.18c.35,0,.64-.08.88-.23s.42-.36.55-.62v-3.21c-.14-.27-.32-.48-.55-.63s-.52-.22-.86-.22c-.29,0-.53.06-.74.19-.2.12-.37.3-.49.51-.13.22-.22.47-.28.76-.06.29-.09.6-.09.93v.15Z"/>
    <path class="cls-9" d="m87.08,191.33h4.31v6.27h2.15v1.66h-6.46v-1.66h2.26v-4.61h-2.26v-1.66Zm2.11-2.03c0-.16.03-.3.08-.44.06-.13.14-.25.24-.34.1-.1.23-.17.37-.22s.3-.08.48-.08c.36,0,.65.1.86.3.21.2.32.46.32.78s-.11.58-.32.78c-.21.2-.5.3-.86.3-.18,0-.34-.03-.48-.08s-.27-.13-.37-.22c-.1-.09-.18-.21-.24-.34-.06-.13-.08-.28-.08-.44Z"/>
    <path class="cls-9" d="m100.49,199.25c-.05-.1-.09-.21-.12-.34s-.06-.26-.09-.4c-.11.12-.24.24-.39.34s-.31.2-.49.28c-.18.08-.38.14-.59.19-.21.05-.45.07-.7.07-.41,0-.78-.06-1.12-.18-.34-.12-.63-.28-.88-.49s-.43-.46-.57-.75-.21-.61-.21-.95c0-.83.31-1.48.93-1.94.62-.46,1.55-.69,2.79-.69h1.14v-.47c0-.38-.12-.68-.37-.9-.25-.22-.61-.33-1.08-.33-.42,0-.72.09-.91.27s-.29.42-.29.71h-2.04c0-.34.07-.66.22-.96s.37-.57.65-.8c.29-.23.63-.41,1.05-.55.41-.13.89-.2,1.42-.2.48,0,.92.06,1.34.18s.77.29,1.07.52.54.52.71.87c.17.35.26.75.26,1.21v3.4c0,.42.03.78.08,1.05s.13.52.23.72v.12h-2.07Zm-1.94-1.43c.21,0,.4-.02.57-.07s.33-.11.48-.19.26-.17.37-.27.18-.2.24-.3v-1.36h-1.04c-.32,0-.59.03-.81.09-.22.06-.41.15-.55.26-.14.11-.25.24-.31.4-.07.15-.1.32-.1.5,0,.27.1.5.29.68.19.18.48.27.88.27Z"/>
    <path class="cls-9" d="m105.08,191.33h4.31v6.27h2.15v1.66h-6.46v-1.66h2.26v-4.61h-2.26v-1.66Zm2.11-2.03c0-.16.03-.3.08-.44.06-.13.14-.25.24-.34.1-.1.23-.17.37-.22s.3-.08.48-.08c.36,0,.65.1.86.3.21.2.32.46.32.78s-.11.58-.32.78c-.21.2-.5.3-.86.3-.18,0-.34-.03-.48-.08s-.27-.13-.37-.22c-.1-.09-.18-.21-.24-.34-.06-.13-.08-.28-.08-.44Z"/>
    <path class="cls-9" d="m119.23,191.18c.31,0,.59.02.85.06.26.04.47.09.63.14l-.3,2.03c-.27-.06-.54-.11-.82-.14s-.55-.05-.8-.05c-.57,0-1.03.11-1.37.33-.34.22-.6.53-.77.94v4.76h-2.04v-7.92h1.9l.1,1.3c.32-.45.71-.8,1.16-1.06.45-.26.94-.38,1.47-.38Z"/>
    <path class="cls-9" d="m126.39,199.4c-.61,0-1.16-.1-1.66-.3s-.93-.47-1.28-.82c-.36-.34-.63-.75-.82-1.22-.19-.47-.29-.97-.29-1.5v-.29c0-.61.1-1.16.29-1.66s.46-.93.8-1.29.75-.64,1.22-.84.98-.3,1.53-.3,1.08.09,1.53.28c.45.19.83.45,1.14.79.31.34.55.75.71,1.23.16.48.24,1.01.24,1.59v.86h-5.38c.04.27.12.51.24.74.12.22.27.41.46.58s.4.29.64.37.5.13.78.13c.2,0,.4-.02.6-.06.2-.04.39-.1.57-.17.18-.08.35-.17.51-.28s.29-.24.41-.4l1.02,1.1c-.13.18-.29.36-.49.53-.2.17-.44.33-.72.46-.28.13-.58.24-.92.33s-.7.12-1.09.12Zm-.24-6.57c-.23,0-.44.04-.63.12-.19.08-.36.2-.5.35-.14.15-.27.33-.36.54s-.17.44-.22.7h3.34v-.16c0-.21-.05-.42-.12-.61s-.18-.36-.31-.49c-.14-.14-.3-.25-.5-.33-.2-.08-.43-.12-.69-.12Z"/>
    <path class="cls-9" d="m36.91,307.25v-10.66h2.76c.71,0,1.35.12,1.92.36.57.24,1.06.58,1.47,1.01.41.43.72.95.95,1.55.22.6.33,1.26.33,1.98v.88c0,.72-.11,1.38-.33,1.97-.22.6-.53,1.11-.93,1.54-.4.43-.88.77-1.44,1.01s-1.18.36-1.86.36h-2.86Zm2.07-8.99v7.34h.79c.39,0,.73-.07,1.04-.22s.56-.36.78-.64c.21-.28.38-.62.49-1.01s.17-.85.17-1.36v-.89c0-.48-.06-.91-.16-1.31-.11-.39-.27-.73-.49-1.01s-.49-.5-.81-.66-.69-.23-1.11-.23h-.69Z"/>
    <path class="cls-9" d="m49.87,307.4c-.61,0-1.16-.1-1.66-.3s-.93-.47-1.28-.82c-.36-.34-.63-.75-.82-1.22-.19-.47-.29-.97-.29-1.5v-.29c0-.61.1-1.16.29-1.66s.46-.93.8-1.29.75-.64,1.22-.84.98-.3,1.53-.3,1.08.09,1.53.28c.45.19.83.45,1.14.79.31.34.55.75.71,1.23.16.48.24,1.01.24,1.59v.86h-5.38c.04.27.12.51.24.74.12.22.27.41.46.58s.4.29.64.37.5.13.78.13c.2,0,.4-.02.6-.06.2-.04.39-.1.57-.17.18-.08.35-.17.51-.28s.29-.24.41-.4l1.02,1.1c-.13.18-.29.36-.49.53-.2.17-.44.33-.72.46-.28.13-.58.24-.92.33s-.7.12-1.09.12Zm-.24-6.57c-.23,0-.44.04-.63.12-.19.08-.36.2-.5.35-.14.15-.27.33-.36.54s-.17.44-.22.7h3.34v-.16c0-.21-.05-.42-.12-.61s-.18-.36-.31-.49c-.14-.14-.3-.25-.5-.33-.2-.08-.43-.12-.69-.12Zm.28-4.58h2.24l-2.03,2.04h-1.58l1.37-2.04Z"/>
    <path class="cls-9" d="m62.17,303.37c0,.59-.06,1.13-.19,1.63s-.32.92-.58,1.27-.58.63-.97.83c-.39.2-.83.3-1.35.3-.46,0-.87-.09-1.21-.26-.34-.17-.63-.42-.88-.73l-.1.84h-1.83v-11.25h2.04v4.04c.23-.27.51-.49.83-.64.32-.15.69-.23,1.12-.23.52,0,.97.1,1.36.3.39.2.71.48.97.83s.45.78.58,1.28c.13.5.19,1.04.19,1.62v.15Zm-2.04-.15c0-.32-.02-.63-.07-.92s-.13-.54-.25-.76-.28-.39-.49-.52-.46-.19-.77-.19c-.37,0-.67.08-.9.23-.23.16-.41.37-.54.64v3.16c.13.27.31.49.54.64.23.16.54.23.92.23.31,0,.56-.06.76-.18s.36-.29.48-.5c.12-.21.2-.46.25-.75.05-.29.07-.61.07-.95v-.15Z"/>
    <path class="cls-9" d="m69.08,306.14c-.27.4-.59.71-.97.93-.38.22-.79.34-1.24.34-.41,0-.79-.06-1.13-.19s-.63-.33-.88-.6-.43-.63-.57-1.05-.2-.94-.2-1.54v-4.69h2.04v4.7c0,.32.02.59.07.81s.12.4.22.53c.1.13.24.23.4.29s.37.09.61.09c.41,0,.73-.08.99-.23.25-.15.45-.36.58-.63v-5.56h2.04v7.92h-1.85l-.12-1.11Z"/>
    <path class="cls-9" d="m76.77,297.38v1.94h2.96v1.5h-2.96v3.41c0,.29.03.53.1.72.07.19.16.35.28.46.12.12.27.2.44.25s.37.07.58.07c.16,0,.32,0,.48-.02.16-.01.32-.03.47-.05.15-.02.29-.05.42-.07s.24-.05.33-.07l.2,1.4c-.14.08-.31.16-.5.22-.19.06-.39.11-.61.15s-.44.07-.67.09c-.23.02-.46.03-.68.03-.43,0-.83-.06-1.18-.17-.35-.11-.66-.29-.91-.53-.25-.24-.45-.55-.58-.92-.14-.37-.21-.82-.21-1.34v-3.6h-1.81v-1.5h1.81v-1.94h2.04Z"/>
    <path class="cls-9" d="m86.99,307.25c-.05-.1-.09-.21-.12-.34s-.06-.26-.09-.4c-.11.12-.24.24-.39.34s-.31.2-.49.28c-.18.08-.38.14-.59.19-.21.05-.45.07-.7.07-.41,0-.78-.06-1.12-.18-.34-.12-.63-.28-.88-.49s-.43-.46-.57-.75-.21-.61-.21-.95c0-.83.31-1.48.93-1.94.62-.46,1.55-.69,2.79-.69h1.14v-.47c0-.38-.12-.68-.37-.9-.25-.22-.61-.33-1.08-.33-.42,0-.72.09-.91.27s-.29.42-.29.71h-2.04c0-.34.07-.66.22-.96s.37-.57.65-.8c.29-.23.63-.41,1.05-.55.41-.13.89-.2,1.42-.2.48,0,.92.06,1.34.18s.77.29,1.07.52.54.52.71.87c.17.35.26.75.26,1.21v3.4c0,.42.03.78.08,1.05s.13.52.23.72v.12h-2.07Zm-1.94-1.43c.21,0,.4-.02.57-.07s.33-.11.48-.19.26-.17.37-.27.18-.2.24-.3v-1.36h-1.04c-.32,0-.59.03-.81.09-.22.06-.41.15-.55.26-.14.11-.25.24-.31.4-.07.15-.1.32-.1.5,0,.27.1.5.29.68.19.18.48.27.88.27Z"/>
    <path class="cls-9" d="m92.88,299.33l.12,1.1c.28-.4.63-.7,1.03-.92s.85-.33,1.35-.33c.4,0,.77.06,1.1.18s.62.3.86.56c.24.26.43.59.56.99.13.4.2.89.2,1.47v4.88h-2.04v-4.85c0-.31-.04-.57-.11-.77-.07-.2-.17-.36-.3-.48s-.29-.2-.48-.25c-.19-.05-.4-.07-.63-.07-.35,0-.64.07-.89.21-.24.14-.44.33-.59.57v5.63h-2.04v-7.92h1.85Z"/>
    <path class="cls-9" d="m103.77,297.38v1.94h2.96v1.5h-2.96v3.41c0,.29.03.53.1.72.07.19.16.35.28.46.12.12.27.2.44.25s.37.07.58.07c.16,0,.32,0,.48-.02.16-.01.32-.03.47-.05.15-.02.29-.05.42-.07s.24-.05.33-.07l.2,1.4c-.14.08-.31.16-.5.22-.19.06-.39.11-.61.15s-.44.07-.67.09c-.23.02-.46.03-.68.03-.43,0-.83-.06-1.18-.17-.35-.11-.66-.29-.91-.53-.25-.24-.45-.55-.58-.92-.14-.37-.21-.82-.21-1.34v-3.6h-1.81v-1.5h1.81v-1.94h2.04Z"/>
  </g>
  <g>
    <line class="cls-10" x1="144" y1="304" x2="154" y2="304"/>
    <line class="cls-13" x1="173.78" y1="304" x2="876.11" y2="304"/>
    <line class="cls-10" x1="886" y1="304" x2="896" y2="304"/>
  </g>
  <g>
    <line class="cls-10" x1="144" y1="195" x2="154" y2="195"/>
    <line class="cls-13" x1="173.78" y1="195" x2="876.11" y2="195"/>
    <line class="cls-10" x1="886" y1="195" x2="896" y2="195"/>
  </g>
  <g>
    <line class="cls-10" x1="144" y1="87" x2="154" y2="87"/>
    <line class="cls-13" x1="173.78" y1="87" x2="876.11" y2="87"/>
    <line class="cls-10" x1="886" y1="87" x2="896" y2="87"/>
  </g>
  <path class="cls-1" d="m238,300.68h52c16.56,0,30,13.44,30,30v53.32h-112v-53.32c0-16.56,13.44-30,30-30Z"/>
  <path class="cls-2" d="m414,192h52c16.56,0,30,13.44,30,30v162h-112v-162c0-16.56,13.44-30,30-30Z"/>
  <path class="cls-6" d="m590,241.35h52c16.56,0,30,13.44,30,30v112.65h-112v-112.65c0-16.56,13.44-30,30-30Z"/>
  <path class="cls-4" d="m766,300.68h52c16.56,0,30,13.44,30,30v53.32h-112v-53.32c0-16.56,13.44-30,30-30Z"/>
  <g>
    <path class="cls-9" d="m211.49,404.32h-2.04v-4.62h-3.02v4.62h-2.04v-10.66h2.04v4.37h3.02v-4.37h2.04v10.66Z"/>
    <path class="cls-9" d="m221.29,395.33h-3.29v8.99h-2.07v-8.99h-3.24v-1.68h8.6v1.68Z"/>
    <path class="cls-9" d="m224.98,393.66l1.01,4.01,1.15-4.01h2.56v10.66h-1.89v-3.16l.09-4.99-1.4,4.63h-1.02l-1.25-4.43.09,4.79v3.16h-1.89v-10.66h2.56Z"/>
    <path class="cls-9" d="m233.66,402.66h5v1.66h-7.06v-10.66h2.07v9Z"/>
    <path class="cls-9" d="m249.63,399.07l.61-5.41h5.92v1.73h-4.24l-.26,2.34c.15-.09.37-.18.64-.27s.6-.14.96-.14c.51,0,.97.08,1.37.25.4.16.74.4,1.02.71s.49.68.63,1.13.22.95.22,1.51c0,.48-.07.93-.21,1.36s-.36.81-.65,1.14-.66.59-1.11.78-.97.29-1.57.29c-.46,0-.9-.07-1.33-.21-.43-.14-.81-.34-1.14-.6s-.6-.59-.81-.97c-.21-.38-.32-.82-.33-1.31h2.01c.05.46.22.82.5,1.08.29.25.65.38,1.1.38.27,0,.51-.05.7-.15.19-.1.35-.24.47-.42.12-.18.21-.4.26-.64.06-.25.08-.52.08-.81s-.04-.54-.11-.78c-.07-.24-.18-.44-.33-.61s-.33-.3-.55-.4-.48-.14-.78-.14c-.2,0-.37.02-.52.05s-.28.08-.39.13-.21.12-.3.19c-.09.07-.17.15-.25.22l-1.63-.4Z"/>
    <path class="cls-9" d="m270.01,405.24h-1.9l3.99-11.58h1.9l-3.99,11.58Z"/>
    <path class="cls-9" d="m292.87,400.98c-.03.54-.15,1.02-.35,1.45-.2.43-.46.8-.79,1.1s-.73.54-1.19.7c-.46.16-.97.25-1.52.25-.63,0-1.19-.12-1.68-.35-.49-.23-.9-.56-1.23-.97-.33-.42-.59-.92-.76-1.51s-.26-1.23-.26-1.93v-1.44c0-.71.09-1.35.28-1.94s.45-1.09.79-1.51.76-.75,1.24-.98c.49-.23,1.03-.35,1.64-.35s1.11.08,1.56.25.85.4,1.17.71.58.68.76,1.13.3.94.35,1.5h-2.05c-.02-.32-.07-.6-.14-.83s-.19-.44-.33-.6c-.14-.16-.33-.28-.54-.36-.22-.08-.48-.12-.78-.12s-.59.07-.83.21-.43.34-.58.6c-.15.26-.27.59-.34.97s-.11.82-.11,1.31v1.45c0,1.05.15,1.83.44,2.33.29.5.76.75,1.4.75.54,0,.96-.14,1.27-.43.31-.29.49-.75.52-1.39h2.06Z"/>
    <path class="cls-9" d="m300,401.54c0-.19-.03-.37-.1-.53-.07-.17-.18-.32-.34-.47-.16-.14-.37-.28-.62-.4-.26-.12-.58-.23-.96-.33-.46-.13-.91-.29-1.33-.48-.42-.19-.79-.42-1.12-.69s-.58-.58-.77-.94c-.19-.36-.29-.77-.29-1.23s.1-.86.29-1.22.45-.68.79-.94.73-.46,1.19-.6c.46-.14.96-.21,1.49-.21s1.07.08,1.53.24c.46.16.86.39,1.19.68.33.29.59.64.78,1.04s.28.84.28,1.32h-2.01c0-.24-.05-.46-.13-.66-.08-.2-.19-.37-.34-.52-.15-.14-.33-.26-.56-.34-.22-.08-.48-.12-.78-.12-.27,0-.52.03-.73.1-.21.07-.39.16-.54.28-.15.12-.26.26-.33.42-.08.16-.11.34-.11.53,0,.2.05.38.15.54.1.16.25.31.44.44.19.13.42.25.69.36.27.11.58.21.92.3.49.14.94.31,1.35.52s.76.45,1.06.73c.29.28.52.6.69.96.16.36.25.76.25,1.2,0,.47-.09.89-.28,1.25s-.45.67-.78.92-.73.44-1.19.57c-.46.13-.96.19-1.5.19-.34,0-.67-.03-1.01-.09-.33-.06-.65-.16-.96-.28s-.59-.29-.85-.48-.49-.41-.69-.67-.34-.54-.45-.86c-.11-.32-.16-.68-.16-1.07h2.02c0,.32.07.6.17.83s.25.42.43.56c.18.15.4.25.66.32.26.07.54.1.85.1.27,0,.52-.03.73-.1.21-.06.39-.15.54-.26s.26-.25.34-.41c.08-.16.12-.33.12-.52Z"/>
    <path class="cls-9" d="m309,401.54c0-.19-.03-.37-.1-.53-.07-.17-.18-.32-.34-.47-.16-.14-.37-.28-.62-.4-.26-.12-.58-.23-.96-.33-.46-.13-.91-.29-1.33-.48-.42-.19-.79-.42-1.12-.69s-.58-.58-.77-.94c-.19-.36-.29-.77-.29-1.23s.1-.86.29-1.22.45-.68.79-.94.73-.46,1.19-.6c.46-.14.96-.21,1.49-.21s1.07.08,1.53.24c.46.16.86.39,1.19.68.33.29.59.64.78,1.04s.28.84.28,1.32h-2.01c0-.24-.05-.46-.13-.66-.08-.2-.19-.37-.34-.52-.15-.14-.33-.26-.56-.34-.22-.08-.48-.12-.78-.12-.27,0-.52.03-.73.1-.21.07-.39.16-.54.28-.15.12-.26.26-.33.42-.08.16-.11.34-.11.53,0,.2.05.38.15.54.1.16.25.31.44.44.19.13.42.25.69.36.27.11.58.21.92.3.49.14.94.31,1.35.52s.76.45,1.06.73c.29.28.52.6.69.96.16.36.25.76.25,1.2,0,.47-.09.89-.28,1.25s-.45.67-.78.92-.73.44-1.19.57c-.46.13-.96.19-1.5.19-.34,0-.67-.03-1.01-.09-.33-.06-.65-.16-.96-.28s-.59-.29-.85-.48-.49-.41-.69-.67-.34-.54-.45-.86c-.11-.32-.16-.68-.16-1.07h2.02c0,.32.07.6.17.83s.25.42.43.56c.18.15.4.25.66.32.26.07.54.1.85.1.27,0,.52-.03.73-.1.21-.06.39-.15.54-.26s.26-.25.34-.41c.08-.16.12-.33.12-.52Z"/>
    <path class="cls-9" d="m314.59,398.09h1.11c.56,0,.97-.14,1.24-.42s.4-.65.4-1.1c0-.21-.03-.4-.09-.58-.06-.17-.15-.32-.27-.45-.12-.12-.28-.22-.46-.29-.19-.07-.41-.1-.66-.1-.21,0-.4.03-.57.09-.18.06-.33.14-.47.25-.13.11-.24.24-.32.4s-.12.33-.12.53h-2.04c0-.43.09-.83.27-1.19s.42-.66.74-.92c.31-.26.68-.46,1.1-.6.42-.14.88-.21,1.37-.21.53,0,1.01.06,1.45.19s.82.32,1.13.58c.31.26.56.57.73.95.17.38.26.82.26,1.31,0,.23-.03.46-.1.68-.07.22-.17.43-.3.63s-.3.38-.49.55c-.2.17-.42.31-.67.44.3.11.56.24.77.41s.4.35.54.57c.14.21.25.45.31.7s.1.52.1.81c0,.5-.1.94-.29,1.33s-.45.72-.78.99-.73.47-1.18.61c-.46.14-.95.21-1.48.21-.45,0-.9-.06-1.33-.19-.43-.12-.82-.31-1.15-.56-.34-.25-.61-.57-.81-.95s-.3-.83-.3-1.35h2.04c0,.21.04.39.12.57.08.17.19.32.33.45.14.12.31.22.51.29s.41.11.64.11c.52,0,.92-.14,1.22-.41s.44-.64.44-1.11c0-.29-.04-.53-.12-.74s-.2-.37-.36-.51c-.16-.13-.35-.23-.57-.29-.22-.06-.47-.1-.75-.1h-1.11v-1.58Z"/>
  </g>
  <g>
    <path class="cls-9" d="m425.22,399.9h-4.57v4.42h-2.06v-10.66h7.21v1.68h-5.14v2.9h4.57v1.67Z"/>
    <path class="cls-9" d="m428.07,396.4h4.31v6.27h2.15v1.66h-6.46v-1.66h2.26v-4.61h-2.26v-1.66Zm2.11-2.03c0-.16.03-.3.08-.44.06-.13.14-.25.24-.34.1-.1.23-.17.37-.22.14-.05.3-.08.48-.08.36,0,.65.1.86.3.21.2.32.46.32.78s-.11.58-.32.78c-.21.2-.5.3-.86.3-.18,0-.34-.03-.48-.08-.14-.05-.27-.13-.37-.22-.1-.09-.18-.21-.24-.34s-.08-.28-.08-.44Z"/>
    <path class="cls-9" d="m436.33,400.3c0-.6.07-1.15.22-1.65s.36-.93.64-1.28c.28-.36.62-.63,1.01-.83.4-.2.84-.29,1.34-.29.46,0,.86.08,1.19.23s.62.38.85.67l.08-.75h1.85v7.67c0,.54-.09,1.02-.28,1.44-.18.42-.44.77-.77,1.06-.33.29-.73.51-1.19.66-.46.15-.97.22-1.53.22-.24,0-.5-.02-.77-.07s-.54-.12-.81-.23-.52-.23-.76-.39-.44-.35-.62-.57l.92-1.24c.26.29.55.52.88.67.33.15.68.23,1.06.23.57,0,1.02-.15,1.34-.46.32-.31.48-.74.48-1.3v-.45c-.24.26-.52.47-.84.62s-.69.22-1.11.22c-.49,0-.94-.1-1.33-.3-.39-.2-.73-.48-1.01-.84-.28-.36-.49-.78-.64-1.27-.15-.49-.22-1.02-.22-1.6v-.15Zm2.04.15c0,.33.03.64.1.93.07.29.17.53.3.75.14.21.31.38.52.5s.46.18.75.18c.36,0,.65-.07.88-.21.23-.14.42-.33.55-.57v-3.35c-.14-.25-.32-.44-.55-.58-.23-.13-.52-.2-.87-.2-.29,0-.54.06-.75.19-.21.12-.38.3-.52.51-.14.22-.24.47-.31.76-.07.29-.1.6-.1.93v.15Z"/>
    <path class="cls-9" d="m446.8,396.4l.06.96c.15-.34.36-.61.62-.81.27-.2.59-.3.97-.3.64,0,1.06.28,1.25.84.16-.26.35-.47.6-.62s.53-.22.88-.22c.24,0,.46.04.67.13.21.09.39.23.54.42.15.19.27.44.36.75.08.31.13.68.13,1.12v5.65h-1.85v-5.66c0-.15-.02-.28-.05-.37s-.07-.17-.13-.23-.12-.1-.19-.12c-.07-.02-.14-.03-.22-.03-.14,0-.26.03-.36.1-.1.07-.17.16-.23.27v6.05h-1.79v-5.67c0-.15-.01-.28-.04-.37s-.07-.17-.12-.23-.11-.09-.18-.11c-.07-.02-.14-.03-.22-.03-.16,0-.28.04-.38.13-.1.09-.17.21-.22.35v5.93h-1.85v-7.92h1.75Z"/>
    <path class="cls-9" d="m459.49,404.32c-.05-.1-.09-.21-.12-.34s-.06-.26-.09-.4c-.11.12-.24.24-.39.34s-.31.2-.49.28c-.18.08-.38.14-.59.19-.21.05-.45.07-.7.07-.41,0-.78-.06-1.12-.18-.34-.12-.63-.28-.88-.49s-.44-.46-.57-.75-.21-.61-.21-.95c0-.83.31-1.48.93-1.94.62-.46,1.55-.69,2.79-.69h1.14v-.47c0-.38-.12-.68-.37-.9-.25-.22-.61-.33-1.08-.33-.42,0-.72.09-.91.27s-.29.42-.29.71h-2.04c0-.34.07-.66.22-.96s.37-.57.65-.8c.29-.23.63-.41,1.05-.55.41-.13.89-.2,1.42-.2.48,0,.92.06,1.34.18s.77.29,1.07.52.54.52.71.87c.17.35.26.75.26,1.21v3.4c0,.42.03.78.08,1.05.05.28.13.52.23.72v.12h-2.06Zm-1.94-1.43c.21,0,.4-.02.57-.07s.33-.11.48-.19c.14-.08.26-.17.37-.27.1-.1.18-.2.24-.3v-1.36h-1.04c-.32,0-.59.03-.81.09-.22.06-.41.15-.55.26-.14.11-.25.24-.32.4-.07.15-.1.32-.1.5,0,.27.1.5.29.68.19.18.48.27.88.27Z"/>
  </g>
  <g>
    <path class="cls-9" d="m558.9,393.66h6.17v1.66h-2.08v7.35h2.08v1.66h-6.17v-1.66h2.03v-7.35h-2.03v-1.66Z"/>
    <path class="cls-9" d="m567.95,393.07h4.43v9.59h2.27v1.66h-6.7v-1.66h2.37v-7.93h-2.37v-1.66Z"/>
    <path class="cls-9" d="m576.95,393.07h4.43v9.59h2.27v1.66h-6.7v-1.66h2.37v-7.93h-2.37v-1.66Z"/>
    <path class="cls-9" d="m590.58,403.21c-.27.4-.59.71-.97.93-.38.22-.79.34-1.24.34-.41,0-.79-.06-1.13-.19s-.63-.33-.88-.6-.43-.63-.57-1.05c-.13-.43-.2-.94-.2-1.54v-4.69h2.04v4.7c0,.32.02.59.07.81.05.22.12.4.22.53.1.13.24.23.4.29s.37.09.61.09c.4,0,.73-.08.99-.23.25-.15.45-.36.58-.63v-5.56h2.04v7.92h-1.85l-.12-1.11Z"/>
    <path class="cls-9" d="m599.64,402.14c0-.12-.03-.23-.08-.32s-.16-.18-.3-.26c-.14-.08-.34-.15-.58-.22s-.54-.14-.91-.21c-.46-.09-.89-.21-1.27-.35-.38-.14-.71-.31-.99-.5-.27-.2-.49-.43-.64-.69-.15-.26-.23-.56-.23-.89s.08-.64.23-.94.38-.56.67-.78.65-.4,1.07-.53.89-.2,1.42-.2,1.05.06,1.49.19.81.31,1.12.53c.3.23.54.5.7.81s.24.65.24,1.02h-2.04c0-.31-.12-.56-.37-.77-.25-.21-.63-.31-1.13-.31-.47,0-.83.09-1.07.26-.24.17-.36.38-.36.63,0,.12.02.23.07.33s.14.19.26.27c.12.08.29.15.51.22.21.07.49.12.82.17.48.08.92.18,1.33.3s.76.28,1.06.47c.3.19.53.43.7.7.17.28.25.6.25.98,0,.35-.08.68-.25.97-.17.3-.41.55-.72.77-.31.21-.69.38-1.12.5-.44.12-.93.18-1.47.18-.6,0-1.12-.08-1.58-.23-.46-.16-.84-.36-1.15-.61-.31-.25-.54-.54-.7-.86-.16-.32-.24-.64-.24-.96h1.94c.02.21.07.4.18.55.1.15.23.28.4.37.16.1.34.17.55.21.21.04.42.07.64.07.5,0,.89-.08,1.15-.24s.39-.37.39-.62Z"/>
    <path class="cls-9" d="m607.27,394.45v1.94h2.96v1.5h-2.96v3.41c0,.29.03.53.1.72.06.19.16.35.28.46.12.12.27.2.44.25.17.05.37.07.58.07.16,0,.32,0,.48-.02.16-.01.32-.03.47-.05.15-.02.29-.05.42-.07.13-.02.24-.05.33-.07l.2,1.4c-.14.08-.31.16-.5.22-.19.06-.39.11-.61.15s-.44.07-.67.09c-.23.02-.46.03-.69.03-.43,0-.83-.06-1.18-.17-.36-.11-.66-.29-.91-.53-.25-.24-.45-.55-.58-.92-.14-.37-.21-.82-.21-1.34v-3.6h-1.81v-1.5h1.81v-1.94h2.04Z"/>
    <path class="cls-9" d="m618.22,396.25c.31,0,.59.02.85.06.26.04.47.09.63.14l-.3,2.03c-.27-.06-.54-.11-.82-.14s-.55-.05-.8-.05c-.57,0-1.03.11-1.37.33-.34.22-.6.53-.77.94v4.76h-2.04v-7.92h1.9l.1,1.3c.32-.45.71-.8,1.16-1.06.45-.26.94-.38,1.47-.38Z"/>
    <path class="cls-9" d="m626.48,404.32c-.05-.1-.09-.21-.12-.34-.03-.13-.06-.26-.09-.4-.11.12-.24.24-.39.34s-.31.2-.49.28c-.18.08-.38.14-.59.19-.21.05-.45.07-.7.07-.41,0-.78-.06-1.12-.18s-.63-.28-.88-.49-.43-.46-.57-.75-.21-.61-.21-.95c0-.83.31-1.48.93-1.94.62-.46,1.55-.69,2.79-.69h1.14v-.47c0-.38-.12-.68-.37-.9-.25-.22-.61-.33-1.08-.33-.41,0-.72.09-.91.27-.19.18-.29.42-.29.71h-2.04c0-.34.07-.66.22-.96.15-.3.37-.57.65-.8.29-.23.63-.41,1.05-.55.41-.13.88-.2,1.42-.2.48,0,.92.06,1.34.18.41.12.77.29,1.07.52s.54.52.71.87c.17.35.26.75.26,1.21v3.4c0,.42.03.78.08,1.05s.13.52.23.72v.12h-2.07Zm-1.94-1.43c.21,0,.4-.02.57-.07s.33-.11.48-.19.26-.17.37-.27.18-.2.24-.3v-1.36h-1.04c-.32,0-.59.03-.81.09-.22.06-.41.15-.55.26-.14.11-.25.24-.32.4-.07.15-.1.32-.1.5,0,.27.1.5.29.68s.48.27.88.27Z"/>
    <path class="cls-9" d="m634.27,394.45v1.94h2.96v1.5h-2.96v3.41c0,.29.03.53.1.72.07.19.16.35.28.46.12.12.27.2.44.25s.37.07.58.07c.16,0,.32,0,.48-.02.16-.01.32-.03.47-.05.15-.02.29-.05.42-.07s.24-.05.33-.07l.2,1.4c-.14.08-.31.16-.5.22-.19.06-.39.11-.61.15s-.44.07-.67.09c-.23.02-.46.03-.68.03-.43,0-.83-.06-1.18-.17-.35-.11-.66-.29-.91-.53-.25-.24-.45-.55-.58-.92-.14-.37-.21-.82-.21-1.34v-3.6h-1.81v-1.5h1.81v-1.94h2.04Z"/>
    <path class="cls-9" d="m639.26,400.28c0-.58.08-1.11.25-1.6.17-.49.41-.92.73-1.28.32-.36.71-.64,1.17-.85.46-.21.99-.31,1.58-.31s1.13.1,1.59.31c.46.21.86.49,1.18.85s.56.79.73,1.28c.17.49.25,1.02.25,1.6v.15c0,.58-.08,1.12-.25,1.61-.17.49-.41.92-.72,1.28s-.71.64-1.17.85c-.46.2-.99.3-1.58.3s-1.13-.1-1.59-.3c-.47-.2-.86-.48-1.18-.85-.32-.36-.56-.79-.73-1.28-.17-.49-.25-1.03-.25-1.61v-.15Zm2.04.15c0,.33.03.64.09.93.06.29.16.54.3.76.14.22.31.39.53.52.22.13.48.19.79.19s.55-.06.77-.19.39-.3.52-.52c.13-.22.23-.47.3-.76.06-.29.09-.6.09-.93v-.15c0-.32-.03-.63-.09-.92-.06-.29-.16-.54-.3-.76-.13-.22-.31-.39-.52-.52s-.48-.19-.78-.19-.56.06-.78.19-.39.3-.53.52-.24.47-.3.76c-.06.29-.09.59-.09.92v.15Z"/>
    <path class="cls-9" d="m654.23,396.25c.31,0,.59.02.85.06.26.04.47.09.63.14l-.3,2.03c-.27-.06-.54-.11-.82-.14s-.55-.05-.8-.05c-.57,0-1.03.11-1.37.33-.34.22-.6.53-.77.94v4.76h-2.04v-7.92h1.9l.1,1.3c.32-.45.71-.8,1.16-1.06.45-.26.94-.38,1.47-.38Z"/>
    <path class="cls-9" d="m669.02,405.24h-1.9l3.99-11.58h1.9l-3.99,11.58Z"/>
    <path class="cls-9" d="m578.64,418.41v3.91h-2.06v-10.66h3.65c.58,0,1.11.08,1.57.25.47.17.87.4,1.2.7.33.3.58.66.76,1.08s.27.89.27,1.4c0,.48-.09.92-.27,1.33s-.43.76-.76,1.05c-.33.3-.73.53-1.2.69s-.99.25-1.57.25h-1.59Zm0-1.67h1.59c.29,0,.55-.04.76-.13s.39-.21.54-.36c.14-.15.25-.33.32-.52.07-.2.11-.4.11-.62,0-.25-.04-.48-.11-.7-.07-.21-.18-.4-.32-.56-.14-.16-.32-.29-.54-.38s-.47-.14-.76-.14h-1.59v3.41Z"/>
    <path class="cls-9" d="m587.56,415.49c.26-.39.58-.69.96-.91.38-.22.8-.33,1.27-.33.42,0,.8.06,1.14.19.35.12.64.32.89.58.25.26.44.6.58,1.01.14.41.21.91.21,1.49v4.8h-2.04v-4.81c0-.28-.04-.53-.11-.73-.07-.21-.17-.37-.3-.5-.13-.13-.29-.22-.48-.28s-.4-.09-.63-.09c-.34,0-.64.06-.89.18-.25.12-.46.29-.62.51v5.72h-2.04v-11.25h2.04v4.42Z"/>
    <path class="cls-9" d="m594.25,418.28c0-.58.08-1.11.25-1.6.17-.49.41-.92.73-1.28.32-.36.71-.64,1.17-.85.46-.21.99-.31,1.59-.31s1.12.1,1.59.31.86.49,1.18.85c.32.36.56.79.73,1.28.17.49.25,1.02.25,1.6v.15c0,.58-.08,1.12-.25,1.61-.17.49-.41.92-.73,1.28-.32.36-.71.64-1.17.85-.46.2-.99.3-1.58.3s-1.13-.1-1.59-.3c-.47-.2-.86-.48-1.18-.85-.32-.36-.56-.79-.73-1.28-.17-.49-.25-1.03-.25-1.61v-.15Zm2.04.15c0,.33.03.64.09.93.06.29.16.54.3.76.14.22.31.39.53.52s.48.19.79.19.55-.06.77-.19.39-.3.52-.52c.13-.22.23-.47.3-.76.06-.29.1-.6.1-.93v-.15c0-.32-.03-.63-.1-.92s-.16-.54-.3-.76-.31-.39-.52-.52-.48-.19-.78-.19-.56.06-.78.19-.39.3-.53.52-.24.47-.3.76-.09.59-.09.92v.15Z"/>
    <path class="cls-9" d="m607.27,412.45v1.94h2.96v1.5h-2.96v3.41c0,.29.03.53.1.72.06.19.16.35.28.46.12.12.27.2.44.25.17.05.37.07.58.07.16,0,.32,0,.48-.02.16-.01.32-.03.47-.05.15-.02.29-.05.42-.07.13-.02.24-.05.33-.07l.2,1.4c-.14.08-.31.16-.5.22-.19.06-.39.11-.61.15s-.44.07-.67.09c-.23.02-.46.03-.69.03-.43,0-.83-.06-1.18-.17-.36-.11-.66-.29-.91-.53-.25-.24-.45-.55-.58-.92-.14-.37-.21-.82-.21-1.34v-3.6h-1.81v-1.5h1.81v-1.94h2.04Z"/>
    <path class="cls-9" d="m612.25,418.28c0-.58.08-1.11.25-1.6.17-.49.41-.92.73-1.28.32-.36.71-.64,1.17-.85.46-.21.99-.31,1.58-.31s1.13.1,1.59.31.86.49,1.18.85c.32.36.56.79.73,1.28.17.49.25,1.02.25,1.6v.15c0,.58-.08,1.12-.25,1.61-.17.49-.41.92-.72,1.28-.32.36-.71.64-1.17.85-.46.2-.99.3-1.58.3s-1.13-.1-1.59-.3c-.47-.2-.86-.48-1.18-.85-.32-.36-.56-.79-.73-1.28-.17-.49-.25-1.03-.25-1.61v-.15Zm2.04.15c0,.33.03.64.1.93.06.29.16.54.3.76.14.22.31.39.53.52s.48.19.79.19.55-.06.77-.19.39-.3.52-.52c.13-.22.23-.47.3-.76.06-.29.09-.6.09-.93v-.15c0-.32-.03-.63-.09-.92s-.16-.54-.3-.76-.31-.39-.52-.52-.48-.19-.78-.19-.56.06-.78.19-.39.3-.53.52-.24.47-.3.76-.1.59-.1.92v.15Z"/>
    <path class="cls-9" d="m626.65,420.14c0-.12-.03-.23-.08-.32-.06-.09-.16-.18-.3-.26-.14-.08-.34-.15-.58-.22-.24-.07-.54-.14-.91-.21-.46-.09-.89-.21-1.27-.35-.38-.14-.71-.31-.99-.5-.27-.2-.49-.43-.64-.69s-.23-.56-.23-.89.08-.64.23-.94.38-.56.67-.78.65-.4,1.07-.53.89-.2,1.42-.2,1.05.06,1.49.19.81.31,1.12.53c.3.23.54.5.7.81.16.31.24.65.24,1.02h-2.04c0-.31-.12-.56-.37-.77-.25-.21-.63-.31-1.13-.31-.47,0-.83.09-1.07.26-.24.17-.36.38-.36.63,0,.12.02.23.07.33s.14.19.26.27c.12.08.29.15.51.22.21.07.49.12.82.17.48.08.92.18,1.33.3s.76.28,1.06.47.53.43.7.7c.17.28.25.6.25.98,0,.35-.08.68-.25.97-.17.3-.41.55-.72.77s-.68.38-1.12.5c-.44.12-.93.18-1.47.18-.6,0-1.12-.08-1.58-.23-.46-.16-.84-.36-1.15-.61-.31-.25-.54-.54-.7-.86-.16-.32-.24-.64-.24-.96h1.94c.01.21.07.4.18.55.1.15.23.28.4.37.16.1.35.17.55.21s.42.07.64.07c.5,0,.89-.08,1.15-.24s.4-.37.4-.62Z"/>
    <path class="cls-9" d="m632.57,415.49c.26-.39.58-.69.96-.91.38-.22.8-.33,1.27-.33.42,0,.8.06,1.14.19.35.12.64.32.89.58s.44.6.58,1.01c.14.41.21.91.21,1.49v4.8h-2.04v-4.81c0-.28-.04-.53-.11-.73s-.17-.37-.3-.5-.29-.22-.48-.28-.39-.09-.63-.09c-.34,0-.64.06-.89.18s-.46.29-.62.51v5.72h-2.04v-11.25h2.04v4.42Z"/>
    <path class="cls-9" d="m639.26,418.28c0-.58.08-1.11.25-1.6.17-.49.41-.92.73-1.28.32-.36.71-.64,1.17-.85.46-.21.99-.31,1.58-.31s1.13.1,1.59.31c.46.21.86.49,1.18.85s.56.79.73,1.28c.17.49.25,1.02.25,1.6v.15c0,.58-.08,1.12-.25,1.61-.17.49-.41.92-.72,1.28s-.71.64-1.17.85c-.46.2-.99.3-1.58.3s-1.13-.1-1.59-.3c-.47-.2-.86-.48-1.18-.85-.32-.36-.56-.79-.73-1.28-.17-.49-.25-1.03-.25-1.61v-.15Zm2.04.15c0,.33.03.64.09.93.06.29.16.54.3.76.14.22.31.39.53.52.22.13.48.19.79.19s.55-.06.77-.19.39-.3.52-.52c.13-.22.23-.47.3-.76.06-.29.09-.6.09-.93v-.15c0-.32-.03-.63-.09-.92-.06-.29-.16-.54-.3-.76-.13-.22-.31-.39-.52-.52s-.48-.19-.78-.19-.56.06-.78.19-.39.3-.53.52-.24.47-.3.76c-.06.29-.09.59-.09.92v.15Z"/>
    <path class="cls-9" d="m655.66,418.43c0,.58-.07,1.11-.2,1.6s-.33.92-.59,1.28c-.26.36-.58.64-.97.85s-.83.31-1.33.31c-.43,0-.8-.07-1.12-.22s-.6-.35-.84-.62v3.74h-2.04v-10.97h1.88l.07.78c.24-.29.53-.52.86-.68s.72-.24,1.16-.24c.5,0,.95.1,1.33.29.38.19.71.47.97.82.26.35.46.78.6,1.27.13.5.2,1.04.2,1.64v.15Zm-2.04-.15c0-.33-.03-.64-.09-.93-.06-.29-.16-.54-.29-.75-.13-.21-.3-.38-.5-.5s-.45-.18-.74-.18c-.36,0-.65.07-.88.21-.23.14-.4.34-.53.59v3.31c.13.25.3.45.53.6.23.15.52.22.89.22.29,0,.53-.06.74-.19s.37-.3.49-.52.22-.47.28-.77c.06-.29.09-.6.09-.93v-.15Z"/>
  </g>
  <g>
    <path class="cls-9" d="m741.14,400.41v3.91h-2.06v-10.66h3.65c.58,0,1.11.08,1.57.25.47.17.87.4,1.2.7.33.3.58.66.76,1.08s.27.89.27,1.4c0,.48-.09.92-.27,1.33s-.43.76-.76,1.05c-.33.3-.73.53-1.2.69s-.99.25-1.57.25h-1.59Zm0-1.67h1.59c.29,0,.55-.04.76-.13s.39-.21.54-.36c.14-.15.25-.33.32-.52.07-.2.11-.4.11-.62,0-.25-.04-.48-.11-.7-.07-.21-.18-.4-.32-.56-.14-.16-.32-.29-.54-.38s-.47-.14-.76-.14h-1.59v3.41Z"/>
    <path class="cls-9" d="m753.72,396.25c.31,0,.59.02.85.06.26.04.47.09.63.14l-.3,2.03c-.27-.06-.54-.11-.82-.14-.28-.03-.55-.05-.8-.05-.57,0-1.03.11-1.37.33-.35.22-.6.53-.77.94v4.76h-2.04v-7.92h1.9l.09,1.3c.32-.45.71-.8,1.16-1.06.45-.26.94-.38,1.47-.38Z"/>
    <path class="cls-9" d="m760.87,404.47c-.61,0-1.17-.1-1.66-.3s-.92-.47-1.28-.82c-.36-.34-.63-.75-.82-1.22-.19-.47-.29-.97-.29-1.5v-.29c0-.61.1-1.16.29-1.66.19-.5.46-.93.8-1.29s.75-.64,1.22-.84.98-.3,1.53-.3,1.08.09,1.53.28c.45.19.83.45,1.14.79.31.34.55.75.71,1.23.16.48.24,1.01.24,1.59v.86h-5.38c.04.27.12.51.24.74.12.22.27.41.46.58s.4.29.64.37.5.13.78.13c.2,0,.4-.02.6-.06.2-.04.39-.1.57-.17.18-.08.35-.17.5-.28s.29-.24.41-.4l1.02,1.1c-.13.18-.29.36-.49.53-.2.17-.44.33-.72.46-.28.13-.58.24-.92.33-.34.08-.7.12-1.09.12Zm-.24-6.57c-.23,0-.44.04-.63.12-.19.08-.36.2-.5.35-.14.15-.26.33-.36.54s-.17.44-.22.7h3.34v-.16c0-.21-.05-.42-.12-.61s-.18-.36-.32-.49c-.14-.14-.3-.25-.5-.33-.2-.08-.43-.12-.68-.12Z"/>
    <path class="cls-9" d="m767.29,396.4l.06.96c.15-.34.36-.61.63-.81.27-.2.59-.3.97-.3.64,0,1.06.28,1.25.84.16-.26.36-.47.6-.62.24-.15.53-.22.88-.22.24,0,.46.04.67.13.21.09.39.23.54.42.15.19.27.44.36.75.09.31.13.68.13,1.12v5.65h-1.85v-5.66c0-.15-.02-.28-.05-.37-.03-.1-.08-.17-.13-.23s-.12-.1-.19-.12c-.07-.02-.14-.03-.21-.03-.14,0-.26.03-.36.1-.1.07-.17.16-.23.27v6.05h-1.79v-5.67c0-.15-.01-.28-.04-.37s-.07-.17-.12-.23c-.05-.05-.11-.09-.18-.11-.07-.02-.14-.03-.22-.03-.16,0-.28.04-.38.13s-.17.21-.22.35v5.93h-1.85v-7.92h1.75Z"/>
    <path class="cls-9" d="m775.57,396.4h4.31v6.27h2.15v1.66h-6.46v-1.66h2.26v-4.61h-2.26v-1.66Zm2.11-2.03c0-.16.03-.3.08-.44.06-.13.13-.25.24-.34.1-.1.22-.17.37-.22s.3-.08.48-.08c.36,0,.65.1.86.3.21.2.32.46.32.78s-.11.58-.32.78c-.21.2-.5.3-.86.3-.18,0-.34-.03-.48-.08s-.27-.13-.37-.22c-.1-.09-.18-.21-.24-.34-.06-.13-.08-.28-.08-.44Z"/>
    <path class="cls-9" d="m787.88,404.47c-.61,0-1.17-.1-1.66-.3s-.92-.47-1.28-.82c-.36-.34-.63-.75-.82-1.22-.19-.47-.29-.97-.29-1.5v-.29c0-.61.1-1.16.29-1.66s.46-.93.8-1.29.75-.64,1.22-.84.98-.3,1.53-.3,1.08.09,1.53.28c.45.19.83.45,1.14.79.31.34.54.75.71,1.23.16.48.24,1.01.24,1.59v.86h-5.38c.04.27.12.51.24.74.12.22.27.41.46.58s.4.29.64.37c.24.09.5.13.78.13.2,0,.4-.02.6-.06s.39-.1.57-.17c.18-.08.35-.17.5-.28s.29-.24.41-.4l1.02,1.1c-.13.18-.29.36-.49.53-.2.17-.44.33-.72.46s-.58.24-.92.33-.7.12-1.09.12Zm-.24-6.57c-.23,0-.44.04-.63.12-.19.08-.36.2-.5.35-.14.15-.27.33-.36.54s-.17.44-.22.7h3.34v-.16c0-.21-.05-.42-.12-.61-.07-.19-.18-.36-.32-.49-.14-.14-.3-.25-.5-.33-.2-.08-.43-.12-.69-.12Z"/>
    <path class="cls-9" d="m798.72,396.25c.31,0,.59.02.85.06.26.04.47.09.63.14l-.3,2.03c-.27-.06-.54-.11-.82-.14s-.55-.05-.8-.05c-.57,0-1.03.11-1.37.33-.34.22-.6.53-.77.94v4.76h-2.04v-7.92h1.9l.09,1.3c.32-.45.71-.8,1.16-1.06.45-.26.94-.38,1.47-.38Z"/>
    <path class="cls-9" d="m805.88,404.47c-.61,0-1.16-.1-1.66-.3s-.93-.47-1.28-.82c-.36-.34-.63-.75-.82-1.22-.19-.47-.29-.97-.29-1.5v-.29c0-.61.09-1.16.29-1.66s.46-.93.8-1.29.75-.64,1.21-.84.98-.3,1.53-.3,1.08.09,1.53.28.82.45,1.13.79.55.75.71,1.23c.16.48.24,1.01.24,1.59v.86h-5.38c.04.27.12.51.24.74.12.22.27.41.46.58s.4.29.64.37c.24.09.5.13.78.13.2,0,.4-.02.6-.06.2-.04.39-.1.57-.17.18-.08.35-.17.51-.28s.29-.24.41-.4l1.02,1.1c-.13.18-.29.36-.49.53-.2.17-.44.33-.72.46-.28.13-.58.24-.92.33s-.7.12-1.09.12Zm-.24-6.57c-.23,0-.44.04-.63.12-.19.08-.36.2-.5.35s-.26.33-.36.54-.17.44-.22.7h3.34v-.16c0-.21-.05-.42-.12-.61-.07-.19-.18-.36-.31-.49-.14-.14-.3-.25-.5-.33-.2-.08-.43-.12-.68-.12Z"/>
    <path class="cls-9" d="m822.15,400.41v3.91h-2.06v-10.66h3.65c.58,0,1.11.08,1.58.25.47.17.87.4,1.2.7.33.3.58.66.76,1.08.18.42.27.89.27,1.4,0,.48-.09.92-.27,1.33-.18.41-.43.76-.76,1.05-.33.3-.73.53-1.2.69s-.99.25-1.58.25h-1.59Zm0-1.67h1.59c.29,0,.55-.04.76-.13s.39-.21.54-.36.25-.33.32-.52c.07-.2.11-.4.11-.62,0-.25-.04-.48-.11-.7s-.18-.4-.32-.56-.32-.29-.54-.38-.47-.14-.76-.14h-1.59v3.41Z"/>
    <path class="cls-9" d="m834.73,396.25c.31,0,.59.02.85.06.26.04.47.09.63.14l-.3,2.03c-.27-.06-.54-.11-.82-.14s-.55-.05-.8-.05c-.57,0-1.03.11-1.37.33-.34.22-.6.53-.77.94v4.76h-2.04v-7.92h1.9l.09,1.3c.32-.45.71-.8,1.16-1.06.45-.26.94-.38,1.47-.38Z"/>
    <path class="cls-9" d="m837.76,400.28c0-.58.08-1.11.25-1.6.17-.49.41-.92.73-1.28.32-.36.71-.64,1.17-.85.46-.21.99-.31,1.58-.31s1.13.1,1.59.31c.46.21.86.49,1.18.85s.56.79.73,1.28c.17.49.25,1.02.25,1.6v.15c0,.58-.08,1.12-.25,1.61-.17.49-.41.92-.72,1.28s-.71.64-1.17.85c-.46.2-.99.3-1.58.3s-1.13-.1-1.59-.3c-.47-.2-.86-.48-1.18-.85-.32-.36-.56-.79-.73-1.28-.17-.49-.25-1.03-.25-1.61v-.15Zm2.04.15c0,.33.03.64.09.93.06.29.16.54.3.76.14.22.31.39.53.52.22.13.48.19.79.19s.55-.06.77-.19.39-.3.52-.52c.13-.22.23-.47.3-.76.06-.29.09-.6.09-.93v-.15c0-.32-.03-.63-.09-.92-.06-.29-.16-.54-.3-.76-.13-.22-.31-.39-.52-.52s-.48-.19-.78-.19-.56.06-.78.19-.39.3-.53.52-.24.47-.3.76c-.06.29-.09.59-.09.92v.15Z"/>
  </g>
  <path class="cls-12" d="m275.24,451.48l.65.65c5.04,5.04,7.57,7.57,7.57,10.7s-2.52,5.66-7.57,10.7l-.65.65"/>
  <path class="cls-12" d="m266.89,444.56l-4.9,18.27-4.9,18.27"/>
  <path class="cls-12" d="m248.76,451.48l-.65.65c-5.04,5.04-7.57,7.57-7.57,10.7s2.52,5.66,7.57,10.7l.65.65"/>
  <path class="cls-11" d="m224.17,462.83c0-17.83,0-26.75,5.54-32.29,5.54-5.54,14.46-5.54,32.29-5.54s26.75,0,32.29,5.54c5.54,5.54,5.54,14.46,5.54,32.29s0,26.75-5.54,32.29c-5.54,5.54-14.46,5.54-32.29,5.54s-26.75,0-32.29-5.54c-5.54-5.54-5.54-14.46-5.54-32.29Z"/>
  <path class="cls-7" d="m427.65,427c-7.94,0-14.37,6.43-14.37,14.37,0,4.84,2.4,9.13,6.07,11.73-3.67,2.6-6.07,6.89-6.07,11.73s2.4,9.13,6.07,11.73c-3.67,2.6-6.07,6.89-6.07,11.73,0,7.94,6.43,14.37,14.37,14.37s14.37-6.43,14.37-14.37v-12.33c2.48,2.03,5.64,3.24,9.09,3.24,7.94,0,14.37-6.43,14.37-14.37,0-4.84-2.4-9.13-6.07-11.73,3.67-2.6,6.07-6.89,6.07-11.73,0-7.94-6.43-14.37-14.37-14.37h-23.46Zm9.09,46.92h-9.09c-5.02,0-9.09-4.07-9.09-9.09s4.07-9.09,9.09-9.09h9.09s0,9.09,0,9.09v9.09Zm-9.09-23.46h9.09v-18.18h-9.09c-5.02,0-9.09,4.07-9.09,9.09s4.07,9.09,9.09,9.09Zm32.55-9.09c0,5.02-4.07,9.09-9.08,9.09h-4.55s-4.55,0-4.55,0v-18.18h9.09c5.02,0,9.09,4.07,9.09,9.09Zm-18.18,23.45c0-5.01,4.07-9.07,9.08-9.08h.02c5.02,0,9.08,4.07,9.08,9.09s-4.07,9.09-9.09,9.09-9.09-4.06-9.09-9.08v-.02Zm-14.37,14.38c-5.02,0-9.09,4.07-9.09,9.09s4.07,9.09,9.09,9.09,9.09-4.07,9.09-9.09v-9.09h-9.09Z"/>
  <path class="cls-5" d="m586.82,448.84c2.09,0,3.79,1.69,3.79,3.79v30.28c0,2.09-1.69,3.79-3.79,3.79s-3.79-1.69-3.79-3.79v-30.28c0-2.09,1.69-3.79,3.79-3.79Zm20.04,6.16l13.73-13.73h-41.33c-2.09,0-3.79,1.69-3.79,3.79v45.43c0,2.09,1.69,3.79,3.79,3.79h60.57c2.09,0,3.79-1.69,3.79-3.79v-30.28c0-2.09,1.69-3.79,3.79-3.79s3.79,1.69,3.79,3.79v30.28c0,6.27-5.08,11.36-11.36,11.36h-60.57c-6.27,0-11.36-5.08-11.36-11.36v-45.43c0-6.27,5.08-11.36,11.36-11.36h48.91l6.46-6.46c1.5-1.42,3.85-1.42,5.35,0l10.1,10.1c1.48,1.48,1.48,3.87,0,5.35l-27.76,27.76c-.71.71-1.67,1.11-2.68,1.11h-10.09c-2.09,0-3.79-1.69-3.79-3.79v-10.09c0-1,.4-1.97,1.11-2.68Zm6.46,8.98h4.74l23.98-23.97-4.74-4.74-23.97,23.98v4.74Z"/>
  <path class="cls-5" d="m816.18,454.75v6.31c0,.26-.16.35-.52.35-.15,0-.33-.01-.51-.01-2.06,0-4.02.45-5.79,1.24l.09-.04c-.65.29-1.2.7-1.65,1.19h0v16.5c0,.32-.13.45-.42.45h-6.37s-.04,0-.07,0c-.23,0-.42-.17-.45-.39h0v-18.05l-.03-2.42-.06-2.52c0-.74-.06-1.45-.13-2.2,0-.01,0-.03,0-.05,0-.14.1-.27.23-.31h5.76c.31,0,.58.22.64.51h0c.27.86.42,1.83.42,2.85v.14h0c.97-1.13,2.13-2.06,3.43-2.76l.06-.03c1.4-.79,3.08-1.26,4.87-1.26h.05,0s.03,0,.05,0c.21,0,.38.16.4.36h0s0,.13,0,.13Zm-22.05,10.19c-1.29,1.79-3.07,3.15-5.13,3.92l-.08.03c-2.01.7-4.32,1.11-6.72,1.11-.19,0-.39,0-.58,0h.03l-1.62-.03-1.39-.03v10.38s0,.04,0,.06c0,.2-.16.37-.36.39h-6.27c-.26,0-.39-.13-.39-.42v-33.27c0-.23.1-.35.32-.35l1.81-.03,2.46-.06,2.81-.06,2.94-.03c.16,0,.35,0,.55,0,2.19,0,4.29.37,6.25,1.05l-.13-.04c1.69.58,3.14,1.49,4.34,2.65h0c1.01,1.01,1.82,2.24,2.34,3.61l.02.07c.47,1.25.74,2.69.74,4.2h0c0,.14.01.3.01.46,0,2.4-.73,4.62-1.97,6.47l.03-.04h0Zm22.93-37.67h-50.12c-7.59,0-13.74,6.15-13.74,13.74h0v48.18h0c0,7.59,6.15,13.74,13.73,13.74h50.14c7.58,0,13.73-6.15,13.73-13.73h0v-48.19h0c0-7.59-6.15-13.74-13.73-13.74h-.01Zm-31.04,26.26c-1.02-.41-2.21-.65-3.46-.65-.13,0-.25,0-.38,0h.02c-1.17-.02-2.35,0-3.52.06v10.86l1.26.06h1.73c1.32,0,2.6-.21,3.79-.61l-.09.02c1.06-.32,1.96-.92,2.64-1.71h0c.63-.84,1.01-1.88,1.01-3.02,0-.11,0-.22-.01-.33v.02c0-.1.01-.22.01-.34,0-1.99-1.24-3.69-2.99-4.37h-.03s0-.01,0-.01Z"/>
</svg>