<?xml version="1.0" encoding="utf-8"?>
<!-- Generator: Adobe Illustrator 28.0.0, SVG Export Plug-In . SVG Version: 6.00 Build 0)  -->
<svg version="1.1" xmlns="http://www.w3.org/2000/svg" xmlns:xlink="http://www.w3.org/1999/xlink" x="0px" y="0px"
	 viewBox="0 0 388 388" style="enable-background:new 0 0 388 388;" xml:space="preserve">
<style type="text/css">
	.st0{display:none;}
	.st1{fill:#FFDE00;}
	.st2{display:inline;fill:none;stroke:#000000;stroke-width:4;stroke-linejoin:round;stroke-miterlimit:10;}
</style>
<g id="Construct" class="st0">
</g>
<g id="THE_Logo">
	<path class="st1" d="M362,2H26C12.75,2,2,12.75,2,26v336c0,13.25,10.75,24,24,24h336c13.25,0,24-10.75,24-24V26
		C386,12.75,375.25,2,362,2z M338,314c0,13.25-10.75,24-24,24H74c-13.25,0-24-10.75-24-24V74c0-13.25,10.75-24,24-24h240
		c13.25,0,24,10.75,24,24V314z"/>
	<path d="M314,50H74c-13.25,0-24,10.75-24,24v240c0,13.25,10.75,24,24,24h240c13.25,0,24-10.75,24-24V74C338,60.75,327.25,50,314,50
		z M234,114c0-8.84,7.16-16,16-16s16,7.16,16,16v16c0,8.84-7.16,16-16,16s-16-7.16-16-16V114z M290,258c0,8.84-7.16,16-16,16
		s-16-7.16-16-16v-41.37l-52.87,52.87c-2.88,2.79-6.8,4.5-11.13,4.5s-8.25-1.71-11.13-4.5L130,216.63V258c0,8.84-7.16,16-16,16
		s-16-7.16-16-16V154c0-22.34,13.08-41.62,32-50.61c7.28-3.46,15.41-5.39,24-5.39c30.93,0,56,25.07,56,56
		c0,26.42-18.29,48.57-42.91,54.46L194,235.37l68.87-68.87c2.88-2.79,6.8-4.5,11.13-4.5c8.84,0,16,7.16,16,16V258z M314,130
		c0,8.84-7.16,16-16,16s-16-7.16-16-16v-16c0-8.84,7.16-16,16-16s16,7.16,16,16V130z"/>
	<path class="st1" d="M274,162c-4.33,0-8.25,1.71-11.13,4.5L194,235.37l-26.91-26.91C191.71,202.57,210,180.42,210,154
		c0-30.93-25.07-56-56-56c-8.59,0-16.72,1.93-24,5.39c-18.92,8.99-32,28.27-32,50.61v104c0,8.84,7.16,16,16,16s16-7.16,16-16v-41.37
		l52.87,52.87c2.88,2.79,6.8,4.5,11.13,4.5s8.25-1.71,11.13-4.5L258,216.63V258c0,8.84,7.16,16,16,16s16-7.16,16-16v-80
		C290,169.16,282.84,162,274,162z M130,168.42c-2.54-4.21-4-9.15-4-14.42c0-5.27,1.46-10.21,4-14.42c4.89-8.14,13.81-13.58,24-13.58
		c15.46,0,28,12.54,28,28c0,15.46-12.54,28-28,28C143.81,182,134.89,176.56,130,168.42z"/>
	<path d="M182,154c0,15.46-12.54,28-28,28c-10.19,0-19.11-5.44-24-13.58c-2.54-4.21-4-9.15-4-14.42c0-5.27,1.46-10.21,4-14.42
		c4.89-8.14,13.81-13.58,24-13.58C169.46,126,182,138.54,182,154z"/>
	<path class="st1" d="M314,114v16c0,8.84-7.16,16-16,16s-16-7.16-16-16v-16c0-8.84,7.16-16,16-16S314,105.16,314,114z"/>
	<path class="st1" d="M266,114v16c0,8.84-7.16,16-16,16s-16-7.16-16-16v-16c0-8.84,7.16-16,16-16S266,105.16,266,114z"/>
</g>
<g id="Logo_RMI" class="st0">
	<path class="st2" d="M362,2H26C12.75,2,2,12.75,2,26v336c0,13.25,10.75,24,24,24h336c13.25,0,24-10.75,24-24V26
		C386,12.75,375.25,2,362,2z M338,314c0,13.25-10.75,24-24,24H74c-13.25,0-24-10.75-24-24V74c0-13.25,10.75-24,24-24h240
		c13.25,0,24,10.75,24,24V314z"/>
	<path class="st2" d="M314,50H74c-13.25,0-24,10.75-24,24v240c0,13.25,10.75,24,24,24h240c13.25,0,24-10.75,24-24V74
		C338,60.75,327.25,50,314,50z M290,258c0,8.84-7.16,16-16,16s-16-7.16-16-16v-41.37l-52.87,52.87c-2.88,2.79-6.8,4.5-11.13,4.5
		s-8.25-1.71-11.13-4.5L130,216.63V258c0,8.84-7.16,16-16,16s-16-7.16-16-16V98h56c2.72,0,5.39,0.19,8,0.57
		c27.14,3.88,48,27.22,48,55.43c0,26.42-18.29,48.57-42.91,54.46L194,235.37l68.87-68.87c2.88-2.79,6.8-4.5,11.13-4.5
		c8.84,0,16,7.16,16,16V258z M290,130c0,8.84-7.16,16-16,16s-16-7.16-16-16v-16c0-8.84,7.16-16,16-16s16,7.16,16,16V130z"/>
	<path class="st2" d="M182,154c0,15.46-12.54,28-28,28c-10.19,0-19.11-5.44-24-13.58c-2.54-4.21-4-9.15-4-14.42
		c0-5.27,1.46-10.21,4-14.42c2.36-3.92,5.66-7.22,9.58-9.58c4.21-2.54,9.15-4,14.42-4c2.78,0,5.46,0.41,8,1.17
		C173.56,130.6,182,141.32,182,154z"/>
	<path class="st2" d="M274,162c-4.33,0-8.25,1.71-11.13,4.5L194,235.37l-26.91-26.91C191.71,202.57,210,180.42,210,154
		c0-28.21-20.86-51.55-48-55.43c-2.61-0.38-5.28-0.57-8-0.57H98v160c0,8.84,7.16,16,16,16s16-7.16,16-16v-41.37l52.87,52.87
		c2.88,2.79,6.8,4.5,11.13,4.5s8.25-1.71,11.13-4.5L258,216.63V258c0,8.84,7.16,16,16,16s16-7.16,16-16v-80
		C290,169.16,282.84,162,274,162z M130,168.42c-2.54-4.21-4-9.15-4-14.42c0-5.27,1.46-10.21,4-14.42c2.36-3.92,5.66-7.22,9.58-9.58
		c4.21-2.54,9.15-4,14.42-4c2.78,0,5.46,0.41,8,1.17c11.56,3.43,20,14.15,20,26.83c0,15.46-12.54,28-28,28
		C143.81,182,134.89,176.56,130,168.42z"/>
	<path class="st2" d="M290,114v16c0,8.84-7.16,16-16,16s-16-7.16-16-16v-16c0-8.84,7.16-16,16-16S290,105.16,290,114z"/>
</g>
</svg>
